{"title":"60 Minutes AU - Special - Roger Rogerson","uid":15113068,"size":1439789670,"categoryP":"video","categoryS":"tv_shows","magnet":"?xt=urn:btih:c0a83967dbf08bf31c748ea05576e407ee57d085&amp;dn=60+Minutes+AU+-+Special+-+Roger+Rogerson&amp;tr=udp%3A%2F%2Ftracker.leechers-paradise.org%3A6969&amp;tr=udp%3A%2F%2Fzer0day.ch%3A1337&amp;tr=udp%3A%2F%2Fopen.demonii.com%3A1337&amp;tr=udp%3A%2F%2Ftracker.coppersurfer.tk%3A6969&amp;tr=udp%3A%2F%2Fexodus.desync.com%3A6969","seeders":3,"leechers":2,"uploader":"Bullrout","files":1,"time":1467025995,"description":"60 Minutes AU - Special - Roger Rogerson\r\n\r\nFor the first explosive time, the full and shocking story of Australia's most crooked cop.\r\n\r\nComplete name : 60 Minutes AU - Special - Roger Rogerson.mkv\r\nFormat : Matroska\r\nFormat version : Version 4 / Version 2\r\nFile size : 1.34 GiB\r\nDuration : 57mn 46s\r\nOverall bit rate mode : Variable\r\nOverall bit rate : 3 322 Kbps\r\nEncoded date : UTC 2016-06-15 15:36:13\r\nWriting application : mkvmerge v9.2.0 ('Photograph') 64bit\r\nWriting library : libebml v1.3.3 + libmatroska v1.4.4\r\n\r\nVideo\r\nID : 2\r\nFormat : AVC\r\nFormat/Info : Advanced Video Codec\r\nFormat profile :   \r\nFormat settings, CABAC : Yes\r\nFormat settings, ReFrames : 3 frames\r\nCodec ID : V_MPEG4/ISO/AVC\r\nDuration : 57mn 46s\r\nBit rate mode : Variable\r\nBit rate : 2 937 Kbps\r\nMaximum bit rate : 3 000 Kbps\r\nWidth : 1 280 pixels\r\nHeight : 720 pixels\r\nDisplay aspect ratio : 16:9\r\nFrame rate mode : Constant\r\nFrame rate : 25.000 fps\r\nStandard : PAL\r\nColor space : YUV\r\nChroma subsampling : 4:2:0\r\nBit depth : 8 bits\r\nScan type : Progressive\r\nBits/(Pixel*Frame) : 0.127\r\nStream size : 1.19 GiB (88%)\r\nWriting library : x264 core 112\r\nDefault : Yes\r\nForced : No\r\nColor range : Limited\r\nColor primaries : BT.709\r\nTransfer characteristics : BT.709\r\nMatrix coefficients : BT.709\r\n\r\nAudio\r\nID : 1\r\nFormat : AC-3\r\nFormat/Info : Audio Coding 3\r\nMode extension : CM (complete main)\r\nFormat settings, Endianness : Big\r\nCodec ID : A_AC3\r\nDuration : 57mn 46s\r\nBit rate mode : Constant\r\nBit rate : 384 Kbps\r\nChannel(s) : 6 channels\r\nChannel positions : Front: L C R, Side: L R, LFE\r\nSampling rate : 48.0 KHz\r\nFrame rate : 31.250 fps (1536 spf)\r\nCompression mode : Lossy\r\nStream size : 159 MiB (12%)\r\nDefault : Yes\r\nForced : No","torrent":{"xt":"urn:btih:c0a83967dbf08bf31c748ea05576e407ee57d085","amp;dn":"60+Minutes+AU+-+Special+-+Roger+Rogerson","amp;tr":["udp%3A%2F%2Ftracker.leechers-paradise.org%3A6969","udp%3A%2F%2Fzer0day.ch%3A1337","udp%3A%2F%2Fopen.demonii.com%3A1337","udp%3A%2F%2Ftracker.coppersurfer.tk%3A6969","udp%3A%2F%2Fexodus.desync.com%3A6969"],"infoHash":"c0a83967dbf08bf31c748ea05576e407ee57d085","infoHashBuffer":{"type":"Buffer","data":[192,168,57,103,219,240,139,243,28,116,142,160,85,118,228,7,238,87,208,133]},"announce":[],"urlList":[]}}